# xmcd CD database file
# Copyright (C) 1993-1998 Ti Kan
#
# Track frame offsets:
#	150
#	20045
#	38170
#
# Disc length: 982 seconds
#
# Revision: 1
# Processed by: cddbd v1.4b41PL1 Copyright (c) Steve Scherf et al.
# Submitted via: CDValet v3.31 - Copyright (c) 1997 Greg Leichner
#
DISCID=1e03d403
DTITLE=3D - Georgy Porgy (Single)
DYEAR=1900
DGENRE=
TTITLE0=Georgy Porgy  (Album Version)
TTITLE1=Georgy Porgy  (Edit)
TTITLE2=Georgy Porgy (Armand's Banji Boy Battle Mix)
EXTD=
EXTT0=
EXTT1=
EXTT2=
PLAYORDER=
